<svg width="80" height="80" xmlns="http://www.w3.org/2000/svg" viewBox="0 0 80 80">
 <g id="Layer_1">
  <title>Layer 1</title>
  <path stroke="null" id="svg_1" d="m73.03872,57.10133c1.31911,-2.74802 2.34356,-5.67564 3.01551,-8.74009c2.62446,-10.43622 1.83409,-19.53834 1.83409,-19.53834l-0.90052,5.99776c0,0 -1.29158,-11.10612 -2.87506,-15.25952c-2.42618,-6.3598 -3.5057,-6.31133 -3.50846,-6.29993c1.49261,3.93104 1.36042,6.18305 1.33013,6.52228c-0.02754,-0.04561 -0.05232,-0.09122 -0.07436,-0.13398c-0.36076,-0.92361 -2.19485,-5.18533 -6.12741,-8.20416c-6.89024,-7.07246 -16.36638,-11.4425 -26.83668,-11.44535c-11.16978,0 -21.21874,4.97438 -28.19434,12.89918c-0.88125,-1.31985 -1.60001,-2.92191 -1.6661,-4.69217c0,0 -0.00551,0.0057 -0.01652,0.01425c0,-0.03136 -0.00826,-0.05986 -0.00826,-0.08837c0,0 -4.43377,3.55476 -3.95459,13.14719c-0.82341,1.63627 -1.54218,3.34096 -2.13977,5.10551c-1.03271,2.32898 -2.06542,5.7127 -2.91637,10.67853c0,0 0.36627,-1.20297 1.0988,-2.81644c-0.17625,1.37401 -0.28365,2.76798 -0.31945,4.1819c-0.24785,2.4088 -0.32496,5.31646 -0.1074,8.8028c0,0 0.08812,-1.15736 0.37453,-2.91051c2.29675,19.53834 18.3602,34.67813 37.84673,34.67813l0,0c5.12224,0 10.01315,-1.05474 14.47446,-2.95327c10.13708,-3.83127 16.13505,-11.17169 19.67105,-18.9454zm-34.14275,-54.48443c6.73602,0 13.02591,1.93844 18.396,5.3022c-6.26235,-1.50514 -9.45411,-0.74402 -9.42657,-0.70696c0.0358,0.04276 9.31917,1.67903 10.96324,4.02226c0,0 -3.94082,0 -7.86511,1.16877c-0.179,0.05416 14.4359,1.88998 17.42387,17.00696c0,0 -1.60276,-3.45784 -3.58281,-4.04792c1.30259,4.10208 0.96662,11.8872 -0.27539,15.75838c-0.15973,0.49601 -0.32496,-2.15224 -2.76491,-3.2925c0.78211,5.80677 -0.04957,15.01721 -3.94357,17.55429c-0.30017,0.19955 2.4427,-9.09072 0.55353,-5.50175c-11.27168,17.89067 -24.67212,7.23779 -30.11105,3.44358c4.36492,1.10605 8.99696,0.30787 11.68201,-1.59351c2.70432,-1.91564 4.30709,-3.31245 5.74737,-2.98463c1.43753,0.33353 2.39589,-1.16021 1.27781,-2.48576c-1.11533,-1.3284 -3.83342,-3.14997 -7.50436,-2.15794c-2.58866,0.70411 -5.80245,3.66878 -10.70162,0.6642c-4.18041,-2.56273 -4.15011,-4.64656 -4.15011,-5.97211c0,-1.04334 0.70775,-2.50857 2.02136,-2.93047c1.59726,0.17674 2.87506,0.61004 4.23273,1.3284c0.01377,-0.38484 0.01652,-0.89795 -0.00275,-1.47949c0.1074,-0.2195 0.04131,-0.88655 -0.12943,-1.69899c-0.09914,-0.81814 -0.26713,-1.65908 -0.52324,-2.4259c0.02754,-0.0057 0.04682,-0.01995 0.05783,-0.05986c0.2093,-0.98062 5.91261,-4.4014 6.3312,-4.72922c0.42135,-0.32497 1.51464,-1.07754 1.39347,-3.37232c-0.04131,-0.75542 -0.15973,-0.83809 -6.14669,-0.81529c-2.52532,0.00855 -3.9243,-2.54848 -4.37593,-3.54906c0.61136,-3.50915 2.37661,-6.01487 5.28472,-7.70815c0.05508,-0.03136 0.04131,-0.05986 -0.02203,-0.07697c0.6031,-0.36203 -6.95082,-0.0171 -10.35463,4.57244c-0.91154,0.13398 -2.16456,-0.13683 -3.56629,-0.13683c-1.75698,0 -3.13668,0.19955 -4.41449,0.53307c-0.13769,0.03706 -0.33597,0.03136 -0.57281,-0.00285c-0.35801,-0.27366 -0.89226,-0.72977 -1.47058,-1.3227c0.44338,-0.51312 0.89226,-1.01483 1.36318,-1.49944c6.44686,-6.67622 15.33918,-10.8011 25.17608,-10.80395z" fill="#228cf7"/>
 </g>
</svg>